<svg xmlns="http://www.w3.org/2000/svg" version="1.1" xmlns:xlink="http://www.w3.org/1999/xlink" xmlns:svgjs="http://svgjs.dev/svgjs" width="1000" height="1000" viewBox="0 0 1000 1000"><rect width="1000" height="1000" fill="#000000"></rect><g transform="matrix(0.7,0,0,0.7,149.57575757575756,282.1265587044535)"><svg viewBox="0 0 396 247" data-background-color="#1c1c29" preserveAspectRatio="xMidYMid meet" height="623" width="1000" xmlns="http://www.w3.org/2000/svg" xmlns:xlink="http://www.w3.org/1999/xlink"><g id="tight-bounds" transform="matrix(1,0,0,1,0.2400000000000091,-0.09999999999999432)"><svg viewBox="0 0 395.52 247.2" height="247.2" width="395.52"><g><svg></svg></g><g><svg viewBox="0 0 395.52 247.2" height="247.2" width="395.52"><g transform="matrix(1,0,0,1,39.55199999999999,77.92283946552692)"><svg viewBox="0 0 316.416 91.35432106894615" height="91.35432106894615" width="316.416"><g><svg viewBox="0 0 316.416 91.35432106894615" height="91.35432106894615" width="316.416"><g><svg viewBox="0 0 316.416 91.35432106894615" height="91.35432106894615" width="316.416"><g><svg viewBox="0 0 316.416 91.35432106894615" height="91.35432106894615" width="316.416"><g><svg viewBox="0 0 316.416 91.35432106894615" height="91.35432106894615" width="316.416"><g><svg viewBox="0 0 316.416 58.746710417993306" height="58.746710417993306" width="316.416"><g transform="matrix(1,0,0,1,0,0)"><svg width="316.416" viewBox="4.610000133514404 -41.939998626708984 228.5313262939453 42.43000030517578" height="58.746710417993306" data-palette-color="#ffffff"><path d="M27-5.03L28.2-1.54Q23.14 0.49 17.04 0.49L17.04 0.49Q13.5 0.49 11.04-0.24L11.04-0.24Q7.1-1.37 5.81-4.88L5.81-4.88Q4.61-8.18 4.61-14.65L4.61-14.65 4.61-15.89Q4.61-23.63 7.84-26.76L7.84-26.76Q10.74-29.54 17.53-29.54L17.53-29.54Q24.15-29.54 26.56-26.27L26.56-26.27Q27.73-24.68 28.11-22.42 28.49-20.17 28.49-18.12L28.49-18.12Q28.49-14.92 28.34-13.16L28.34-13.16Q24.9-13.01 22.17-13.01L22.17-13.01Q22.17-13.01 18.24-13.01L18.24-13.01Q12.08-13.01 8.76-13.55L8.76-13.55Q8.76-7.93 10.18-5.71L10.18-5.71Q11.91-3 17.09-3 22.27-3 27-5.03L27-5.03ZM8.76-16.41L24.37-16.41 24.37-18.75Q24.37-22.58 22.88-24.22L22.88-24.22Q21.22-26.05 17.14-26.05L17.14-26.05Q12.26-26.05 10.47-23.93L10.47-23.93Q8.76-21.9 8.76-16.41L8.76-16.41ZM39.06 0L39.06-37.13Q39.06-37.13 42.72-37.4L42.72-37.4Q48.22-37.84 51.49-37.84 54.76-37.84 56.71-37.59 58.66-37.33 60.14-36.71 61.62-36.08 62.66-35.01 63.69-33.94 64.35-32.28L64.35-32.28Q65.6-29.17 65.6-23.05L65.6-23.05 65.6-19.26Q65.6-12.01 64.52-8.25L64.52-8.25Q63.28-3.91 60.06-2L60.06-2Q56.74 0 50.31 0L50.31 0 39.06 0ZM59.79-31.42Q58.91-32.81 57.25-33.52 55.59-34.23 52.15-34.23 48.7-34.23 43.21-33.81L43.21-33.81 43.21-3.49 50.97-3.49Q55.52-3.49 57.71-4.98L57.71-4.98Q59.86-6.42 60.59-9.94L60.59-9.94Q61.23-12.82 61.23-19.26L61.23-19.26 61.23-23.07Q61.23-29.15 59.79-31.42L59.79-31.42ZM79.1-36.01L79.1-36.01Q77.46-36.01 77-36.47L77-36.47Q76.26-37.23 76.26-38.56 76.26-39.89 76.42-40.47 76.58-41.04 76.9-41.36L76.9-41.36Q77.49-41.94 78.69-41.94 79.9-41.94 80.43-41.82 80.95-41.7 81.29-41.36L81.29-41.36Q81.88-40.77 81.88-39.44 81.88-38.11 81.75-37.54 81.61-36.96 81.29-36.62L81.29-36.62Q80.68-36.01 79.1-36.01ZM77.17 0L77.12-29.05 81.12-29.05 81.12 0 77.17 0ZM91.15-2.39L92.91-5.76Q97.94-2.95 103.02-2.95L103.02-2.95Q107.24-2.95 107.98-5.96L107.98-5.96Q108.22-6.98 108.22-8.46 108.22-9.94 107.88-10.75 107.54-11.57 106.73-11.98 105.93-12.38 104.59-12.57 103.26-12.77 101.21-13.12 99.16-13.48 97.45-13.92 95.74-14.36 94.55-15.19L94.55-15.19Q92.01-16.97 92.11-21.19L92.11-21.19 92.11-21.8Q92.11-26.25 95.04-28.13L95.04-28.13Q97.87-29.98 104.39-29.39L104.39-29.39Q108.83-28.98 111.47-27.86L111.47-27.86 110.32-24.17Q107.39-25.42 103.29-25.98L103.29-25.98Q102.02-26.15 100.91-26.15 99.8-26.15 98.89-25.98 97.99-25.81 97.38-25.34L97.38-25.34Q96.21-24.39 96.16-21.8L96.16-21.8Q96.09-18.75 97.87-17.92L97.87-17.92Q99.58-17.11 101.92-16.81 104.26-16.5 105.75-16.27 107.24-16.04 108.46-15.65 109.68-15.26 110.56-14.4L110.56-14.4Q112.39-12.67 112.35-8.37L112.35-8.37Q112.22-0.88 106.1 0.17L106.1 0.17Q104.24 0.49 102.39 0.49 100.53 0.49 98.98 0.26 97.43 0.02 96.01-0.39L96.01-0.39Q93.33-1.15 91.15-2.39L91.15-2.39ZM140.98-4.59L142.2-1.29Q138.81 0.49 132.9 0.49L132.9 0.49Q129.41 0.49 127.77-0.05L127.77-0.05Q123.6-1.46 122.3-4.86L122.3-4.86Q121.4-7.23 121.25-9.96 121.11-12.7 121.11-14.58 121.11-16.46 121.21-18.25 121.3-20.04 121.68-21.7 122.06-23.36 122.84-24.79 123.62-26.22 124.97-27.29L124.97-27.29Q127.87-29.54 133.32-29.54L133.32-29.54Q137.32-29.54 140.69-28.37L140.69-28.37Q141.59-28.08 142.06-27.81L142.06-27.81 140.83-24.19Q136.15-26 133.16-26 130.17-26 128.76-25.32 127.36-24.63 126.58-23.24L126.58-23.24Q125.26-20.85 125.26-14.45L125.26-14.45Q125.26-11.89 125.43-9.78 125.6-7.67 126.28-6.15L126.28-6.15Q127.72-3.03 132.23-3.03 136.73-3.03 140.98-4.59L140.98-4.59ZM173.18-29.05L173.18-12.79Q173.18-4.74 173.64-0.2L173.64-0.2 170.01 0.1 169.42-3.34Q166.56-0.98 162.76 0.07L162.76 0.07Q161.24 0.49 159.15 0.49 157.07 0.49 155.42-0.01 153.77-0.51 152.8-1.61L152.8-1.61Q151.01-3.59 151.01-8.81L151.01-8.81 151.01-29.05 155.11-29.05 155.11-9.47Q155.11-5.96 155.8-4.94 156.48-3.93 157.42-3.58 158.36-3.22 159.66-3.22 160.95-3.22 162.16-3.43 163.37-3.64 164.59-4.03L164.59-4.03Q167.15-4.86 169.23-6.3L169.23-6.3 169.23-6.32Q169.13-8.18 169.13-13.55L169.13-13.55 169.13-29.05 173.18-29.05ZM182.8-2.39L184.56-5.76Q189.58-2.95 194.66-2.95L194.66-2.95Q198.89-2.95 199.62-5.96L199.62-5.96Q199.86-6.98 199.86-8.46 199.86-9.94 199.52-10.75 199.18-11.57 198.37-11.98 197.57-12.38 196.24-12.57 194.91-12.77 192.86-13.12 190.81-13.48 189.1-13.92 187.39-14.36 186.19-15.19L186.19-15.19Q183.65-16.97 183.75-21.19L183.75-21.19 183.75-21.8Q183.75-26.25 186.68-28.13L186.68-28.13Q189.51-29.98 196.03-29.39L196.03-29.39Q200.47-28.98 203.11-27.86L203.11-27.86 201.96-24.17Q199.03-25.42 194.93-25.98L194.93-25.98Q193.66-26.15 192.55-26.15 191.44-26.15 190.54-25.98 189.63-25.81 189.02-25.34L189.02-25.34Q187.85-24.39 187.8-21.8L187.8-21.8Q187.73-18.75 189.51-17.92L189.51-17.92Q191.22-17.11 193.56-16.81 195.91-16.5 197.4-16.27 198.89-16.04 200.11-15.65 201.33-15.26 202.21-14.4L202.21-14.4Q204.04-12.67 203.99-8.37L203.99-8.37Q203.87-0.88 197.74 0.17L197.74 0.17Q195.88 0.49 194.03 0.49 192.17 0.49 190.62 0.26 189.07 0.02 187.66-0.39L187.66-0.39Q184.97-1.15 182.8-2.39L182.8-2.39ZM211.95-2.39L213.7-5.76Q218.73-2.95 223.81-2.95L223.81-2.95Q228.03-2.95 228.77-5.96L228.77-5.96Q229.01-6.98 229.01-8.46 229.01-9.94 228.67-10.75 228.33-11.57 227.52-11.98 226.72-12.38 225.39-12.57 224.05-12.77 222-13.12 219.95-13.48 218.24-13.92 216.54-14.36 215.34-15.19L215.34-15.19Q212.8-16.97 212.9-21.19L212.9-21.19 212.9-21.8Q212.9-26.25 215.83-28.13L215.83-28.13Q218.66-29.98 225.18-29.39L225.18-29.39Q229.62-28.98 232.26-27.86L232.26-27.86 231.11-24.17Q228.18-25.42 224.08-25.98L224.08-25.98Q222.81-26.15 221.7-26.15 220.59-26.15 219.68-25.98 218.78-25.81 218.17-25.34L218.17-25.34Q217-24.39 216.95-21.8L216.95-21.8Q216.88-18.75 218.66-17.92L218.66-17.92Q220.37-17.11 222.71-16.81 225.06-16.5 226.55-16.27 228.03-16.04 229.25-15.65 230.48-15.26 231.35-14.4L231.35-14.4Q233.19-12.67 233.14-8.37L233.14-8.37Q233.01-0.88 226.89 0.17L226.89 0.17Q225.03 0.49 223.18 0.49 221.32 0.49 219.77 0.26 218.22 0.02 216.8-0.39L216.8-0.39Q214.12-1.15 211.95-2.39L211.95-2.39Z" opacity="1" transform="matrix(1,0,0,1,0,0)" fill="#ffffff" class="undefined-text-0" data-fill-palette-color="primary" id="text-0"></path></svg></g></svg></g><g transform="matrix(1,0,0,1,0,72.61539882663149)"><svg viewBox="0 0 316.416 18.738922242314647" height="18.738922242314647" width="316.416"><g transform="matrix(1,0,0,1,0,0)"><svg width="316.416" viewBox="-12.5 -32 552.969970703125 32.75" height="18.738922242314647" data-palette-color="#ffffff"><path d="M30.6-8L29.2 0 10.2 0 15.7-31.25 25.2-31.25 21.1-8 30.6-8ZM9.1-2.4L8.7-0.15-12.5-2.4 9.1-2.4ZM10.8-12.05L10.4-9.8-10.8-12.05 10.8-12.05ZM11.65-16.85L11.25-14.6-9.95-16.85 11.65-16.85ZM12.5-21.65L12.1-19.4-9.1-21.65 12.5-21.65ZM13.3-26.45L12.95-24.2-8.25-26.45 13.3-26.45ZM9.95-7.25L9.55-5-11.65-7.25 9.95-7.25ZM14.15-31.25L13.75-29-7.4-31.25 14.15-31.25ZM63.65-19.05L62.35-11.8 52.85-11.8 52.2-8 63.85-8 62.45 0 41.3 0 46.8-31.25 67.7-31.25 65.1-23.25 54.85-23.25 54.15-19.05 63.65-19.05ZM40.2-2.4L39.8-0.15 18.6-2.4 40.2-2.4ZM41.9-12.05L41.5-9.8 20.3-12.05 41.9-12.05ZM42.75-16.85L42.35-14.6 21.15-16.85 42.75-16.85ZM43.6-21.65L43.2-19.4 22-21.65 43.6-21.65ZM44.4-26.45L44.05-24.2 22.85-26.45 44.4-26.45ZM41.05-7.25L40.65-5 19.45-7.25 41.05-7.25ZM45.25-31.25L44.85-29 23.7-31.25 45.25-31.25ZM88.95-4.95L87 0 77 0 90.15-31.25 104.85-31.25 107.05 0 97 0 96.8-4.95 88.95-4.95ZM92.05-12.9L96.05-12.9 96.05-21.65 95.55-21.65 92.05-12.9ZM76.35-2.4L75.4-0.2 54.9-2.4 76.35-2.4ZM78.4-7.25L77.45-5.05 56.95-7.25 78.4-7.25ZM80.4-12.05L79.5-9.85 59-12.05 80.4-12.05ZM82.45-16.85L81.5-14.65 61.05-16.85 82.45-16.85ZM84.45-21.65L83.55-19.45 63.1-21.65 84.45-21.65ZM88.5-31.25L87.6-29.1 67.2-31.25 88.5-31.25ZM86.45-26.45L85.55-24.3 65.15-26.45 86.45-26.45ZM67.2-31.25L87.6-29.1 88.5-31.25 67.2-31.25ZM125.64-31.25L140.64-31.25Q149.19-31.25 149.19-23.6L149.19-23.6Q149.19-20.45 148.24-17.6L148.24-17.6Q146.49-12.2 142.74-10.4L142.74-10.4 146.04 0 135.59 0 133.29-9.3 131.24-9.3 129.64 0 120.14 0 125.64-31.25ZM132.59-17L134.79-17Q136.49-17 137.37-17.38 138.24-17.75 138.57-19.53 138.89-21.3 138.89-21.7L138.89-21.7Q138.89-22.7 138.12-22.98 137.34-23.25 135.59-23.25L135.59-23.25 133.69-23.25 132.59-17ZM119.04-2.4L118.64-0.15 97.44-2.4 119.04-2.4ZM120.74-12.05L120.34-9.8 99.14-12.05 120.74-12.05ZM122.39-21.65L121.99-19.4 100.84-21.65 122.39-21.65ZM123.24-26.45L122.84-24.2 101.69-26.45 123.24-26.45ZM119.89-7.25L119.49-5 98.29-7.25 119.89-7.25ZM124.09-31.25L123.69-29 102.54-31.25 124.09-31.25ZM121.54-16.85L121.14-14.6 99.99-16.85 121.54-16.85ZM177.34 0L172.24-11.1Q172.04-11.45 172.04-12.08 172.04-12.7 172.14-13.5L172.14-13.5 171.74-13.5 169.39 0 159.89 0 165.39-31.25 174.34-31.25 179.44-20.15Q179.59-19.8 179.59-19.18 179.59-18.55 179.49-17.75L179.49-17.75 179.89-17.75 182.29-31.25 191.79-31.25 186.29 0 177.34 0ZM158.79-2.4L158.39-0.15 137.19-2.4 158.79-2.4ZM160.49-12.05L160.09-9.8 138.89-12.05 160.49-12.05ZM161.34-16.85L160.94-14.6 139.74-16.85 161.34-16.85ZM162.19-21.65L161.79-19.4 140.59-21.65 162.19-21.65ZM162.99-26.45L162.64-24.2 141.44-26.45 162.99-26.45ZM159.64-7.25L159.24-5 138.04-7.25 159.64-7.25ZM163.84-31.25L163.44-29 142.29-31.25 163.84-31.25ZM223.79-4.95L221.84 0 211.84 0 224.99-31.25 239.69-31.25 241.89 0 231.84 0 231.64-4.95 223.79-4.95ZM226.89-12.9L230.89-12.9 230.89-21.65 230.39-21.65 226.89-12.9ZM211.19-2.4L210.24-0.2 189.74-2.4 211.19-2.4ZM213.24-7.25L212.29-5.05 191.79-7.25 213.24-7.25ZM215.24-12.05L214.34-9.85 193.84-12.05 215.24-12.05ZM217.29-16.85L216.34-14.65 195.89-16.85 217.29-16.85ZM219.29-21.65L218.39-19.45 197.94-21.65 219.29-21.65ZM223.34-31.25L222.44-29.1 202.04-31.25 223.34-31.25ZM221.29-26.45L220.39-24.3 199.99-26.45 221.29-26.45ZM202.04-31.25L222.44-29.1 223.34-31.25 202.04-31.25ZM272.43 0L267.33-11.1Q267.13-11.45 267.13-12.08 267.13-12.7 267.23-13.5L267.23-13.5 266.83-13.5 264.48 0 254.98 0 260.48-31.25 269.43-31.25 274.53-20.15Q274.68-19.8 274.68-19.18 274.68-18.55 274.58-17.75L274.58-17.75 274.98-17.75 277.38-31.25 286.88-31.25 281.38 0 272.43 0ZM253.88-2.4L253.48-0.15 232.28-2.4 253.88-2.4ZM255.58-12.05L255.18-9.8 233.98-12.05 255.58-12.05ZM256.43-16.85L256.03-14.6 234.83-16.85 256.43-16.85ZM257.28-21.65L256.88-19.4 235.68-21.65 257.28-21.65ZM258.08-26.45L257.73-24.2 236.53-26.45 258.08-26.45ZM254.73-7.25L254.33-5 233.13-7.25 254.73-7.25ZM258.93-31.25L258.53-29 237.38-31.25 258.93-31.25ZM303.03-31.25L316.33-31.25Q322.78-31.25 325.51-28.98 328.23-26.7 328.23-21.6L328.23-21.6Q328.23-19 327.63-15.6L327.63-15.6Q326.13-7.2 322.51-3.6 318.88 0 310.83 0L310.83 0 297.53 0 303.03-31.25ZM315.03-23.25L315.03-23.25 311.08-23.25 308.43-8 312.38-8Q314.33-8 315.28-8.47 316.23-8.95 316.53-10.65L316.53-10.65 318.28-20.6Q318.33-20.9 318.33-21.4L318.33-21.4Q318.33-22.55 317.53-22.9 316.73-23.25 315.03-23.25ZM296.43-2.4L296.03-0.15 274.83-2.4 296.43-2.4ZM298.13-12.05L297.73-9.8 276.53-12.05 298.13-12.05ZM298.98-16.85L298.58-14.6 277.38-16.85 298.98-16.85ZM299.83-21.65L299.43-19.4 278.23-21.65 299.83-21.65ZM300.63-26.45L300.28-24.2 279.08-26.45 300.63-26.45ZM297.28-7.25L296.88-5 275.68-7.25 297.28-7.25ZM301.48-31.25L301.08-29 279.93-31.25 301.48-31.25ZM352.28-19.4L352.28-19.4 331.08-21.65 352.63-21.65Q352.38-20.65 352.28-19.4ZM332.48-26.45L353.98-26.45 353.23-24.25 332.48-26.45ZM331.53-16.85L352.28-16.85Q352.38-15.5 352.68-14.6L352.68-14.6 331.53-16.85ZM359.28-9.8L359.28-9.8 332.83-12.05 354.38-12.05Q356.03-10.45 359.28-9.8ZM336.23-31.25L357.73-31.25Q356.58-30.5 355.53-29.2L355.53-29.2 336.23-31.25ZM349.93-5.05L331.98-7.25 350.68-7.25 349.93-5.05ZM348.33-0.2L331.13-2.4 349.08-2.4 348.33-0.2ZM350.03-0.55L352.83-8.8Q357.03-7.65 360.5-7.65 363.98-7.65 366.18-7.95L366.18-7.95 366.58-10.45 362.43-10.85Q357.68-11.3 355.7-13 353.73-14.7 353.73-17.8L353.73-17.8Q353.73-19.15 354.03-20.8L354.03-20.8Q355.18-27.2 358.23-29.6 361.28-32 367.6-32 373.93-32 378.78-30.75L378.78-30.75 376.18-22.75Q371.83-23.5 369.2-23.5 366.58-23.5 364.68-23.25L364.68-23.25 364.28-20.8 367.63-20.45Q372.73-19.9 374.88-18.03 377.03-16.15 377.03-13L377.03-13Q377.03-9.8 375.68-6.4L375.68-6.4Q374.93-4.65 374.1-3.48 373.28-2.3 372-1.48 370.73-0.65 369.68-0.23 368.63 0.2 366.98 0.4L366.98 0.4Q364.68 0.75 361.28 0.75L361.28 0.75Q355.08 0.75 350.03-0.55L350.03-0.55ZM415.62 0L406.12 0 408.02-11.05 400.87-11.05 398.97 0 389.47 0 394.97-31.25 404.47-31.25 402.52-20.2 409.67-20.2 411.62-31.25 421.12-31.25 415.62 0ZM388.37-2.4L387.97-0.15 366.77-2.4 388.37-2.4ZM390.07-12.05L389.67-9.8 368.47-12.05 390.07-12.05ZM390.92-16.85L390.52-14.6 369.32-16.85 390.92-16.85ZM391.77-21.65L391.37-19.4 370.17-21.65 391.77-21.65ZM392.57-26.45L392.22-24.2 371.02-26.45 392.57-26.45ZM389.22-7.25L388.82-5 367.62-7.25 389.22-7.25ZM393.42-31.25L393.02-29 371.87-31.25 393.42-31.25ZM443.12-4.95L441.17 0 431.17 0 444.32-31.25 459.02-31.25 461.22 0 451.17 0 450.97-4.95 443.12-4.95ZM446.22-12.9L450.22-12.9 450.22-21.65 449.72-21.65 446.22-12.9ZM430.52-2.4L429.57-0.2 409.07-2.4 430.52-2.4ZM432.57-7.25L431.62-5.05 411.12-7.25 432.57-7.25ZM434.57-12.05L433.67-9.85 413.17-12.05 434.57-12.05ZM436.62-16.85L435.67-14.65 415.22-16.85 436.62-16.85ZM438.62-21.65L437.72-19.45 417.27-21.65 438.62-21.65ZM442.67-31.25L441.77-29.1 421.37-31.25 442.67-31.25ZM440.62-26.45L439.72-24.3 419.32-26.45 440.62-26.45ZM421.37-31.25L441.77-29.1 442.67-31.25 421.37-31.25ZM479.82-31.25L494.82-31.25Q503.37-31.25 503.37-23.6L503.37-23.6Q503.37-20.45 502.42-17.6L502.42-17.6Q500.67-12.2 496.92-10.4L496.92-10.4 500.22 0 489.77 0 487.47-9.3 485.42-9.3 483.82 0 474.32 0 479.82-31.25ZM486.77-17L488.97-17Q490.67-17 491.54-17.38 492.42-17.75 492.74-19.53 493.07-21.3 493.07-21.7L493.07-21.7Q493.07-22.7 492.29-22.98 491.52-23.25 489.77-23.25L489.77-23.25 487.87-23.25 486.77-17ZM473.22-2.4L472.82-0.15 451.62-2.4 473.22-2.4ZM474.92-12.05L474.52-9.8 453.32-12.05 474.92-12.05ZM476.57-21.65L476.17-19.4 455.02-21.65 476.57-21.65ZM477.42-26.45L477.02-24.2 455.87-26.45 477.42-26.45ZM474.07-7.25L473.67-5 452.47-7.25 474.07-7.25ZM478.27-31.25L477.87-29 456.72-31.25 478.27-31.25ZM475.72-16.85L475.32-14.6 454.17-16.85 475.72-16.85ZM536.42-19.05L535.12-11.8 525.62-11.8 524.97-8 536.62-8 535.22 0 514.07 0 519.57-31.25 540.47-31.25 537.87-23.25 527.62-23.25 526.92-19.05 536.42-19.05ZM512.97-2.4L512.57-0.15 491.37-2.4 512.97-2.4ZM514.67-12.05L514.27-9.8 493.07-12.05 514.67-12.05ZM515.52-16.85L515.12-14.6 493.92-16.85 515.52-16.85ZM516.37-21.65L515.97-19.4 494.77-21.65 516.37-21.65ZM517.17-26.45L516.82-24.2 495.62-26.45 517.17-26.45ZM513.82-7.25L513.42-5 492.22-7.25 513.82-7.25ZM518.02-31.25L517.62-29 496.47-31.25 518.02-31.25Z" opacity="1" transform="matrix(1,0,0,1,0,0)" fill="#ffffff" class="undefined-text-1" data-fill-palette-color="secondary" id="text-1"></path></svg></g></svg></g></svg></g></svg></g></svg></g></svg></g></svg></g><g mask="url(#fc46346e-8e46-4f21-97a2-158d331a262f)"><g transform="matrix(3.073826827966394, 0, 0, 3.073826827966394, 75.16148916628704, 1)"><svg xmlns="http://www.w3.org/2000/svg" xmlns:xlink="http://www.w3.org/1999/xlink" version="1.1" x="0" y="0" viewBox="5.412825107574463 5.195577621459961 79.76930236816406 79.77027130126953" enable-background="new 0 0 90 90" xml:space="preserve" height="79.77027130126953" width="79.76930236816406" class="icon-none" data-fill-palette-color="accent" id="none"><path d="M54.624 83.27c-10.792 1.801-22.246-1.411-30.727-8.272-8.062-6.522-13.088-16.744-12.728-27.17 0.349-10.096 5.499-20.182 14.078-25.707 8.769-5.647 20.783-5.62 29.498 0.129 8.154 5.379 12.661 15.857 9.907 25.391-1.424 4.931-4.572 9.475-9.052 12.082-4.663 2.714-10.561 3.268-15.615 1.341-4.544-1.733-8.418-5.448-9.851-10.154-1.47-4.826-0.243-10.416 3.327-14.027 3.452-3.492 8.998-4.743 13.484-2.567 4.259 2.065 6.884 7.148 5.307 11.755-0.85 2.483-2.859 4.611-5.423 5.317-2.69 0.741-5.774-0.221-7.439-2.493-1.629-2.222-1.495-5.503 0.597-7.389 1.054-0.95 2.599-1.429 3.984-1.015 0.41 0.122 2.233 0.566 2.058 1.209 0.087-0.652-1.341-0.82-1.755-0.934-1.29-0.356-2.733 0.004-3.719 0.904-1.739 1.586-1.995 4.459-0.597 6.34 1.417 1.906 4.102 2.721 6.348 1.971 2.287-0.765 3.875-3.013 4.245-5.344 0.746-4.703-3.812-8.759-8.323-8.569-4.774 0.201-8.548 4.373-9.111 8.971-1.056 8.621 8.8 14.488 16.466 12.536 8.546-2.177 12.86-12.372 10.766-20.465-2.34-9.045-11.891-14.664-20.877-14.543-9.785 0.131-18.28 7.23-21.955 16.011-4.038 9.649-2.194 21.17 4.201 29.364 6.485 8.309 16.93 13.113 27.352 13.664 5.766 0.305 11.749-0.537 17.004-3.006 4.955-2.328 8.907-6.258 11.976-10.734 6.303-9.194 8.662-20.938 6.135-31.824C79.845 17.355 61.052 3.689 41.936 5.329 23.164 6.939 7.154 22.991 5.551 41.756c-0.918 10.74 2.777 21.76 9.928 29.817 7.078 7.976 17.424 12.875 28.071 13.353 6.118 0.275 12.303-0.876 17.903-3.359-2.472 0.844-4.993 1.695-7.622 1.838 0.506-0.028 0.982-0.246 1.492-0.242-1.79-0.014-3.465 0.776-5.242 0.87 1.034-0.055 2.103-0.271 3.095-0.566 0.337-0.101 1.458-0.578 1.755-0.242-0.207-0.235-1.358 0.182-1.613 0.243-0.926 0.221-1.953 0.452-2.902 0.51 0.426-0.026 4.536-0.711 4.53-0.755 0.008 0.065-4.022 0.607-4.613 0.769 0.714-0.196 1.505-0.245 2.235-0.367 0.292-0.048 2.164-0.591 2.374-0.402C54.91 83.194 54.661 83.264 54.624 83.27 43.928 85.055 57.114 82.88 54.624 83.27z" fill="#ffffff" data-fill-palette-color="accent"></path></svg></g></g></svg></g><defs><mask id="7afa4e27-a8bb-4629-b1dd-dbabf0cfd2b5"><rect width="640" height="400" fill="white"></rect><rect width="348.05760000000004" height="129.62129284290282" fill="black" x="145.97119999999998" y="135.1893535785486" id="transform-me" transform="matrix(1,0,0,1,-122.24000000000001,-76.4)"></rect></mask><mask id="40de0299-d052-42fa-85b8-fc6a2737af94"><rect width="640" height="400" fill="white"></rect><rect width="348.05760000000004" height="129.62129284290282" fill="black" x="145.97119999999998" y="135.1893535785486" id="transform-me" transform="matrix(1,0,0,1,-122.24000000000001,-76.4)"></rect></mask><mask id="0ebe7af6-2889-4a4a-bad2-e5aaaa025e27"><rect width="640" height="400" fill="white"></rect><rect width="348.05760000000004" height="129.62129284290282" fill="black" x="145.97119999999998" y="135.1893535785486" id="transform-me" transform="matrix(1,0,0,1,-122.24000000000001,-76.4)"></rect></mask><mask id="9900784d-c2ab-4ee5-82f5-954f81ddbbc4"><rect width="640" height="400" fill="white"></rect><rect width="348.05760000000004" height="129.62129284290282" fill="black" x="145.97119999999998" y="135.1893535785486" id="transform-me" transform="matrix(1,0,0,1,-122.24000000000001,-76.4)"></rect></mask><mask id="fa85120b-5385-4202-9b0a-3f915e7a08b4"><rect width="640" height="400" fill="white"></rect><rect width="348.05760000000004" height="129.62129284290282" fill="black" x="145.97119999999998" y="135.1893535785486" id="transform-me" transform="matrix(1,0,0,1,-122.24000000000001,-76.4)"></rect></mask><mask id="40df08c8-4f78-4f88-a452-05edcfb93c13"><rect width="640" height="400" fill="white"></rect><rect width="348.05760000000004" height="129.62129284290282" fill="black" x="145.97119999999998" y="135.1893535785486" id="transform-me" transform="matrix(1,0,0,1,-122.24000000000001,-76.4)"></rect></mask><mask id="983fe598-93b7-4a7f-baf1-700945899ddf"><rect width="640" height="400" fill="white"></rect><rect width="348.05760000000004" height="129.62129284290282" fill="black" x="145.97119999999998" y="135.1893535785486" id="transform-me" transform="matrix(1,0,0,1,-122.24000000000001,-76.4)"></rect></mask><mask id="16b1793d-e493-4bdb-9795-fdd9aa5a8156"><rect width="640" height="400" fill="white"></rect><rect width="348.05760000000004" height="129.62129284290282" fill="black" x="145.97119999999998" y="135.1893535785486" id="transform-me" transform="matrix(1,0,0,1,-122.24000000000001,-76.4)"></rect></mask><mask id="c5ef1fd7-0367-4fd4-b869-944d300919e9"><rect width="640" height="400" fill="white"></rect><rect width="348.05760000000004" height="129.62129284290282" fill="black" x="145.97119999999998" y="135.1893535785486" id="transform-me" transform="matrix(1,0,0,1,-122.24000000000001,-76.4)"></rect></mask><mask id="96bc4b28-bbe2-464d-9bcf-83d38d5e58cb"><rect width="640" height="400" fill="white"></rect><rect width="348.05760000000004" height="129.62129284290282" fill="black" x="145.97119999999998" y="135.1893535785486" id="transform-me" transform="matrix(1,0,0,1,-122.24000000000001,-76.4)"></rect></mask><mask id="6cc4445d-2fa3-4c13-abbb-80a377dafa57"><rect width="640" height="400" fill="white"></rect><rect width="348.05760000000004" height="129.62129284290282" fill="black" x="145.97119999999998" y="135.1893535785486" id="transform-me" transform="matrix(1,0,0,1,-122.24000000000001,-76.4)"></rect></mask><mask id="0567a520-5bbd-4e72-995a-5e068ef52868"><rect width="640" height="400" fill="white"></rect><rect width="348.05760000000004" height="129.62129284290282" fill="black" x="145.97119999999998" y="135.1893535785486" id="transform-me" transform="matrix(1,0,0,1,-122.24000000000001,-76.4)"></rect></mask><mask id="49822187-8f71-453d-8723-91284d50b4f1"><rect width="640" height="400" fill="white"></rect><rect width="348.05760000000004" height="129.62129284290282" fill="black" x="145.97119999999998" y="135.1893535785486" id="transform-me" transform="matrix(1,0,0,1,-122.24000000000001,-76.4)"></rect></mask><mask id="228b9514-e47b-4d6a-af6d-10b65c58149a"><rect width="640" height="400" fill="white"></rect><rect width="348.05760000000004" height="129.62129284290282" fill="black" x="145.97119999999998" y="135.1893535785486" id="transform-me" transform="matrix(1,0,0,1,-122.24000000000001,-76.4)"></rect></mask><mask id="7ecf3e35-d017-42dd-bb5d-733da6bca5ac"><rect width="640" height="400" fill="white"></rect><rect width="348.05760000000004" height="129.62129284290282" fill="black" x="145.97119999999998" y="135.1893535785486" id="transform-me" transform="matrix(1,0,0,1,-122.24000000000001,-76.4)"></rect></mask><mask id="6c301f38-9b63-4bbc-999c-793bde29d4b0"><rect width="640" height="400" fill="white"></rect><rect width="348.05760000000004" height="129.62129284290282" fill="black" x="145.97119999999998" y="135.1893535785486" id="transform-me" transform="matrix(1,0,0,1,-122.24000000000001,-76.4)"></rect></mask><mask id="c2eba78c-4125-4a4d-8c69-e6595cf659bf"><rect width="640" height="400" fill="white"></rect><rect width="348.05760000000004" height="129.62129284290282" fill="black" x="145.97119999999998" y="135.1893535785486" id="transform-me" transform="matrix(1,0,0,1,-122.24000000000001,-76.4)"></rect></mask><mask id="4060207f-6d45-4636-ab13-4eb72163e2f0"><rect width="640" height="400" fill="white"></rect><rect width="348.05760000000004" height="129.62129284290282" fill="black" x="145.97119999999998" y="135.1893535785486" id="transform-me" transform="matrix(1,0,0,1,-122.24000000000001,-76.4)"></rect></mask><mask id="958be997-9aa4-4835-ae63-78143607050b"><rect width="640" height="400" fill="white"></rect><rect width="348.05760000000004" height="129.62129284290282" fill="black" x="145.97119999999998" y="135.1893535785486" id="transform-me" transform="matrix(1,0,0,1,-122.24000000000001,-76.4)"></rect></mask><mask id="23e4d1b9-d29f-40b0-8e17-4f06bc3064f6"><rect width="640" height="400" fill="white"></rect><rect width="348.05760000000004" height="129.62129284290282" fill="black" x="145.97119999999998" y="135.1893535785486" id="transform-me" transform="matrix(1,0,0,1,-122.24000000000001,-76.4)"></rect></mask><mask id="fec9bb2a-7d57-49b3-a485-402e533febc0"><rect width="640" height="400" fill="white"></rect><rect width="348.05760000000004" height="129.62129284290282" fill="black" x="145.97119999999998" y="135.1893535785486" id="transform-me" transform="matrix(1,0,0,1,-122.24000000000001,-76.4)"></rect></mask><mask id="a79efc4e-a993-4f59-8940-0064e90d024c"><rect width="640" height="400" fill="white"></rect><rect width="348.05760000000004" height="129.62129284290282" fill="black" x="145.97119999999998" y="135.1893535785486" id="transform-me" transform="matrix(1,0,0,1,-122.24000000000001,-76.4)"></rect></mask><mask id="80bba54d-b2f8-4ea4-a796-7e3dee45ffeb"><rect width="640" height="400" fill="white"></rect><rect width="348.05760000000004" height="129.62129284290282" fill="black" x="145.97119999999998" y="135.1893535785486" id="transform-me" transform="matrix(1,0,0,1,-122.24000000000001,-76.4)"></rect></mask><mask id="3208b2c1-93a6-476c-b3a1-d2bd417f64a7"><rect width="640" height="400" fill="white"></rect><rect width="348.05760000000004" height="129.62129284290282" fill="black" x="145.97119999999998" y="135.1893535785486" id="transform-me" transform="matrix(1,0,0,1,-122.24000000000001,-76.4)"></rect></mask><mask id="1d908832-5657-420b-8558-8fec5b3deace"><rect width="640" height="400" fill="white"></rect><rect width="348.05760000000004" height="129.62129284290282" fill="black" x="145.97119999999998" y="135.1893535785486" id="transform-me" transform="matrix(1,0,0,1,-122.24000000000001,-76.4)"></rect></mask><mask id="e73f93e8-5137-4cc1-8903-8ff2293ef0f7"><rect width="640" height="400" fill="white"></rect><rect width="348.05760000000004" height="129.62129284290282" fill="black" x="145.97119999999998" y="135.1893535785486" id="transform-me" transform="matrix(1,0,0,1,-122.24000000000001,-76.4)"></rect></mask><mask id="ce06f1d3-8faf-40d0-885c-8ae26e50bd93"><rect width="640" height="400" fill="white"></rect><rect width="348.05760000000004" height="129.62129284290282" fill="black" x="145.97119999999998" y="135.1893535785486" id="transform-me" transform="matrix(1,0,0,1,-122.24000000000001,-76.4)"></rect></mask><mask id="7677a8cf-bcd6-4cfa-ba35-18af1d4e631d"><rect width="640" height="400" fill="white"></rect><rect width="348.05760000000004" height="129.62129284290282" fill="black" x="145.97119999999998" y="135.1893535785486" id="transform-me" transform="matrix(1,0,0,1,-122.24000000000001,-76.4)"></rect></mask><mask id="27349453-1e00-497c-996b-beb2b0353a82"><rect width="640" height="400" fill="white"></rect><rect width="348.05760000000004" height="129.62129284290282" fill="black" x="145.97119999999998" y="135.1893535785486" id="transform-me" transform="matrix(1,0,0,1,-122.24000000000001,-76.4)"></rect></mask><mask id="834fb409-27e2-4229-b317-576d3165cf7a"><rect width="640" height="400" fill="white"></rect><rect width="348.05760000000004" height="129.62129284290282" fill="black" x="145.97119999999998" y="135.1893535785486" id="transform-me" transform="matrix(1,0,0,1,-122.24000000000001,-76.4)"></rect></mask><mask id="cef83621-1c63-4850-8c1d-5cad2fd15505"><rect width="640" height="400" fill="white"></rect><rect width="348.05760000000004" height="129.62129284290282" fill="black" x="145.97119999999998" y="135.1893535785486" id="transform-me" transform="matrix(1,0,0,1,-122.24000000000001,-76.4)"></rect></mask><mask id="723eca72-de4b-48d1-b527-09996dfc5615"><rect width="640" height="400" fill="white"></rect><rect width="348.05760000000004" height="129.62129284290282" fill="black" x="145.97119999999998" y="135.1893535785486" id="transform-me" transform="matrix(1,0,0,1,-122.24000000000001,-76.4)"></rect></mask><mask id="a075af64-db80-4f37-81e2-f91ca1534a49"><rect width="640" height="400" fill="white"></rect><rect width="348.05760000000004" height="129.62129284290282" fill="black" x="145.97119999999998" y="135.1893535785486" id="transform-me" transform="matrix(1,0,0,1,-122.24000000000001,-76.4)"></rect></mask><mask id="401bad7b-1f59-4bb6-a825-57b88146e37c"><rect width="640" height="400" fill="white"></rect><rect width="348.05760000000004" height="119.09169788622253" fill="black" x="145.97119999999998" y="140.45415105688875" id="transform-me" transform="matrix(1,0,0,1,-122.24000000000001,-76.4)"></rect></mask><mask id="09525cf8-85fd-4338-8dda-4a220b6376a2"><rect width="640" height="400" fill="white"></rect><rect width="348.05760000000004" height="130.50609516965" fill="black" x="145.97119999999998" y="134.746952415175" id="transform-me" transform="matrix(1,0,0,1,-122.24000000000001,-76.4)"></rect></mask><mask id="45dc6ae8-13d3-4ddb-893a-930a52d2b898"><rect width="640" height="400" fill="white"></rect><rect width="348.05760000000004" height="129.62129284290282" fill="black" x="145.97119999999998" y="135.1893535785486" id="transform-me" transform="matrix(1,0,0,1,-122.24000000000001,-76.4)"></rect></mask><mask id="ba036286-0773-4228-85f5-7ca32059d5e2"><rect width="640" height="400" fill="white"></rect><rect width="348.05760000000004" height="130.50609516965" fill="black" x="145.97119999999998" y="134.746952415175" id="transform-me" transform="matrix(1,0,0,1,-122.24000000000001,-76.4)"></rect></mask><mask id="dded5c73-295f-4c82-b0b3-09f1bf3de548"><rect width="640" height="400" fill="white"></rect><rect width="348.05760000000004" height="119.09169788622253" fill="black" x="145.97119999999998" y="140.45415105688875" id="transform-me" transform="matrix(1,0,0,1,-122.24000000000001,-76.4)"></rect></mask><mask id="a7d22c6f-ec20-4e70-a986-aecf1d842f48"><rect width="640" height="400" fill="white"></rect><rect width="232.0384" height="79.39446525748168" fill="black" x="203.9808" y="160.30276737125916" id="transform-me" transform="matrix(1,0,0,1,-122.24000000000001,-76.4)"></rect></mask><mask id="e6e3b689-1fff-4397-81d6-e6114719b9b9"><rect width="640" height="400" fill="white"></rect><rect width="348.05760000000004" height="119.09169788622253" fill="black" x="145.97119999999998" y="140.45415105688875" id="transform-me" transform="matrix(1,0,0,1,-122.24000000000001,-76.4)"></rect></mask><mask id="bd4f56e0-e2fb-4977-ae90-2d82dc54f9e0"><rect width="640" height="400" fill="white"></rect><rect width="435.072" height="148.86462235777816" fill="black" x="102.464" y="125.56768882111092" id="transform-me" transform="matrix(1,0,0,1,-122.24000000000001,-76.4)"></rect></mask><mask id="23d205ff-0f7f-46fc-9791-1d180eff7ef3"><rect width="640" height="400" fill="white"></rect><rect width="435.072" height="148.86462235777816" fill="black" x="102.464" y="125.56768882111092" id="transform-me" transform="matrix(1,0,0,1,-122.24000000000001,-76.4)"></rect></mask><mask id="3f603756-375d-4db0-b473-b467141403a1"><rect width="640" height="400" fill="white"></rect><rect width="174.02880000000002" height="59.54584894311127" fill="black" x="232.98559999999998" y="170.22707552844437" id="transform-me" transform="matrix(1,0,0,1,-122.24000000000001,-76.4)"></rect></mask><mask id="71bed8f0-7819-4b63-9353-84c3cf3cdb1b"><rect width="640" height="400" fill="white"></rect><rect width="232.0384" height="79.39446525748168" fill="black" x="203.9808" y="160.30276737125916" id="transform-me" transform="matrix(1,0,0,1,-122.24000000000001,-76.4)"></rect></mask><mask id="fc46346e-8e46-4f21-97a2-158d331a262f"><rect width="640" height="400" fill="white"></rect><rect width="348.05760000000004" height="119.09169788622253" fill="black" x="145.97119999999998" y="140.45415105688875" id="transform-me" transform="matrix(1,0,0,1,-122.24000000000001,-76.4)"></rect></mask></defs></svg><rect width="395.52" height="247.2" fill="none" stroke="none" visibility="hidden"></rect></g></svg></g></svg>